<?xml version="1.0" encoding="UTF-8"?>
<svg xmlns="http://www.w3.org/2000/svg" xmlns:xlink="http://www.w3.org/1999/xlink" viewBox="0 0 70 32" width="70" height="32">
  <defs>
    <path id="a" d="M0 0h70v32H0z"/>
  </defs>
  <g fill="none" fill-rule="evenodd">
    <mask id="b" fill="#fff">
      <use xlink:href="#a"/>
    </mask>
    <path fill="#132E3D" d="M7.874 29.895c-3.198 0-5.8-2.654-5.8-5.917s2.602-5.917 5.8-5.917c3.197 0 5.8 2.654 5.8 5.917s-2.603 5.917-5.8 5.917zM13.54 19.17c-.488-1.116-1.519-2.078-2.797-2.659a7.699 7.699 0 00-2.87-.555C3.534 15.956 0 19.555 0 23.978 0 28.402 3.532 32 7.874 32c.698 0 1.374-.094 2.019-.269 1.664-.491 3.054-1.622 3.647-2.976v2.977h2.047V16.555H13.54v2.615zM30.007 8c1.145 0 2.074.942 2.074 2.105v21.627h-2.074V8zm-2.932 8.106l.22.04v2.14c-.18-.037-.363-.071-.547-.1a8.657 8.657 0 00-1.347-.125c-.606 0-1.172.04-1.672.13a4.41 4.41 0 00-1.29.42 2.692 2.692 0 00-.623.45c-.24.235-.439.52-.6.903-.215.51-.356 1.205-.356 2.14v9.628h-2.074v-9.628c0-.967.121-1.817.37-2.562a4.964 4.964 0 011.112-1.887 4.706 4.706 0 011.077-.836 6.054 6.054 0 011.657-.626c.771-.176 1.577-.236 2.4-.237.558 0 1.126.062 1.673.15zm20.15 12.058a5.804 5.804 0 01-1.843 1.267 5.679 5.679 0 01-2.256.464 5.679 5.679 0 01-2.255-.464 5.852 5.852 0 01-2.553-2.144 5.967 5.967 0 01-.991-3.309c0-1.639.649-3.112 1.7-4.185a5.804 5.804 0 011.844-1.268 5.679 5.679 0 012.255-.464c.803 0 1.563.165 2.256.464a5.853 5.853 0 012.553 2.144c.626.945.99 2.08.99 3.31a5.954 5.954 0 01-1.7 4.185zm-1.032-11.576a7.727 7.727 0 00-3.067-.632 7.727 7.727 0 00-3.066.632 7.932 7.932 0 00-3.463 2.906 8.097 8.097 0 00-1.344 4.484c0 2.21.881 4.222 2.304 5.67a7.877 7.877 0 002.503 1.72 7.732 7.732 0 003.066.632 7.731 7.731 0 003.067-.632 7.933 7.933 0 003.463-2.906A8.097 8.097 0 0051 23.978c0-2.21-.882-4.222-2.304-5.67a7.877 7.877 0 00-2.503-1.72z" mask="url(#b)"/>
    <path fill="#49B48A" d="M61.885 10.137l5.17-6.033C68.037 2.757 68.611 2.2 68.17 0l-7.674 8.958a8.25 8.25 0 00-1.488 2.544 8.247 8.247 0 00-.488 3.172l-3.35-3.809-.004-.004a5.992 5.992 0 00-.982-.859 10.372 10.372 0 00-1.892-1.032 6.92 6.92 0 01.676-.202 5.339 5.339 0 011.225-.153c.463 0 .918.073 1.354.247.433.175.854.45 1.263.894l.225.262 1.392-1.176-.25-.292-.011-.012a5.298 5.298 0 00-1.937-1.362 5.442 5.442 0 00-2.036-.38c-.157 0-.311.007-.465.018-1.522.25-2.462 1.15-3.869 1.296l-.002.001h-4.77c-.105 0-.12.15-.018.17 1.252.25 3.48.728 5.046 1.265 1.19.551 2.333 1.255 3.235 2.106.177.141.33.282.457.422l4.462 5.073c.635.522 1.453.786 3.194.799a6.42 6.42 0 01-.724-1.393 6.433 6.433 0 01-.015-4.433 6.428 6.428 0 011.161-1.983zM70 22c-1.806-.023-2.593-.33-3.24-.925l-1.002-1.139c-.066-.08-.133-.16-.205-.244l.011.024-1.775-2.018a4.99 4.99 0 01-.943-5.006 4.981 4.981 0 01.907-1.544l4.383-5.096c.448 2.27-.2 2.777-1.26 4.26l-1.737 2.018a3.164 3.164 0 00-.77 2.072 3.184 3.184 0 00.793 2.098L70 22z" mask="url(#b)"/>
  </g>
</svg>
